<?xml version="1.0" encoding="UTF-8"?>
<svg xmlns="http://www.w3.org/2000/svg" xmlns:xlink="http://www.w3.org/1999/xlink" width="2364.97" height="3525" viewBox="0 0 2364.97 3525">
<defs>
<clipPath id="clip-0">
<path clip-rule="nonzero" d="M 0 0 L 2364.96875 0 L 2364.96875 3525 L 0 3525 Z M 0 0 "/>
</clipPath>
<clipPath id="clip-1">
<path clip-rule="nonzero" d="M 2014.519531 3453.300781 C 2001.121094 3453.300781 1988.019531 3448.800781 1977.421875 3440.601562 C 1792.820312 3297.398438 1857.71875 3126.800781 1860.621094 3119.601562 L 1973.121094 3164.300781 L 1973.121094 3163.398438 C 1969.621094 3173.101562 1942.320312 3260.5 2051.21875 3344.898438 C 2077.71875 3365.300781 2082.519531 3403.398438 2062.121094 3429.800781 C 2050.621094 3444.601562 2032.921875 3453.300781 2014.121094 3453.300781 Z M 350.324219 3453.300781 C 316.925781 3453.300781 289.824219 3426.300781 289.722656 3392.898438 C 289.722656 3374.101562 298.425781 3356.398438 313.222656 3344.898438 C 422.125 3260.398438 394.824219 3173 391.324219 3163.398438 L 391.324219 3164.300781 L 503.925781 3119.601562 C 506.722656 3127.199219 572.023438 3297.398438 387.023438 3440.601562 C 376.625 3448.800781 363.625 3453.199219 350.324219 3453.300781 Z M 1182.421875 2109.300781 C 927.324219 2109.199219 720.425781 2316.101562 720.324219 2571.300781 C 720.222656 2826.398438 927.125 3033.300781 1182.320312 3033.398438 C 1437.519531 3033.5 1644.320312 2826.601562 1644.421875 2571.398438 C 1644.421875 2571.300781 1644.421875 2571.300781 1644.421875 2571.199219 C 1644.21875 2316.101562 1437.621094 2109.199219 1182.421875 2108.898438 Z M 1182.421875 3154.300781 C 860.425781 3154.398438 599.324219 2893.300781 599.324219 2571.300781 C 599.222656 2249.300781 860.324219 1988.199219 1182.320312 1988.199219 C 1504.320312 1988.101562 1765.421875 2249.199219 1765.421875 2571.199219 L 1765.421875 2571.300781 C 1765.121094 2893.101562 1504.320312 3154 1182.421875 3154.300781 Z M 1169.71875 2879.199219 C 1166.421875 2879.199219 1163.121094 2879.199219 1159.921875 2879.199219 C 1077.121094 2875 994.125 2815.5 995.324219 2691.800781 C 995.625 2658.398438 1023.019531 2631.5 1056.320312 2631.800781 C 1089.71875 2632.101562 1116.621094 2659.5 1116.320312 2692.898438 C 1115.820312 2749.199219 1144.421875 2757.101562 1166.019531 2758.300781 C 1201.921875 2760.101562 1241.621094 2737.601562 1244.121094 2714.699219 L 1244.121094 2712.300781 C 1250.820312 2661.5 1170.019531 2629.101562 1153.820312 2623.5 C 998.125 2566.898438 985.425781 2478.300781 1002.121094 2414 C 1033.121094 2295 1133.820312 2253.601562 1213.921875 2265.300781 C 1308.71875 2279.199219 1372.820312 2357.101562 1369.019531 2454.398438 C 1367.820312 2487.800781 1339.71875 2513.898438 1306.320312 2512.699219 C 1272.921875 2511.5 1246.820312 2483.398438 1248.019531 2450 C 1249.519531 2407.800781 1222.320312 2388.699219 1196.320312 2384.800781 C 1167.621094 2380.601562 1132.121094 2394 1119.019531 2444.300781 C 1115.820312 2456.300781 1110.019531 2478.699219 1194.621094 2509.5 C 1285.421875 2542.601562 1377.421875 2616.898438 1363.71875 2726.699219 C 1355.21875 2819.898438 1258.519531 2879.199219 1169.71875 2879.199219 Z M 1177.019531 2967.101562 C 1143.621094 2967.101562 1116.519531 2940 1116.519531 2906.601562 L 1116.519531 2818.601562 C 1116.621094 2785.199219 1143.71875 2758.101562 1177.121094 2758.199219 C 1210.519531 2758.300781 1237.519531 2785.300781 1237.519531 2818.601562 L 1237.519531 2906.699219 C 1237.519531 2940 1210.519531 2967.101562 1177.019531 2967.101562 Z M 1187.820312 2384.101562 C 1154.421875 2384.101562 1127.320312 2357 1127.320312 2323.601562 L 1127.320312 2235.5 C 1127.320312 2202.101562 1154.421875 2175 1187.820312 2175 C 1221.21875 2175 1248.320312 2202.101562 1248.320312 2235.5 L 1248.320312 2323.601562 C 1248.320312 2357 1221.21875 2384.101562 1187.820312 2384.101562 Z M 1557.21875 713 C 1554.21875 713 1551.320312 712.800781 1548.421875 712.398438 C 1515.320312 707.601562 1492.421875 676.898438 1497.21875 643.898438 L 1556.121094 236.898438 C 1510.71875 257.300781 1472.921875 265.199219 1438.421875 261.898438 C 1373.71875 255.601562 1338.121094 211.300781 1312.121094 178.699219 C 1284.320312 143.800781 1265.71875 121.101562 1216.121094 121.101562 C 1166.519531 121.101562 1148.019531 143.800781 1120.019531 178.898438 C 1094.019531 211.300781 1058.421875 255.601562 993.722656 262.101562 C 959.425781 265.398438 921.222656 257.601562 876.023438 237.101562 L 934.925781 644.101562 C 938.824219 677.300781 915.222656 707.398438 881.925781 711.300781 C 849.925781 715.101562 820.625 693.101562 815.125 661.398438 L 738.324219 130.101562 C 733.523438 97 756.523438 66.300781 789.523438 61.5 C 804.625 59.300781 819.925781 62.898438 832.523438 71.601562 C 926.023438 135.898438 966.324219 142.898438 982.023438 141.398438 C 994.824219 140.101562 1004.121094 129.898438 1025.621094 103 C 1058.519531 62 1108.320312 0 1216.121094 0 C 1323.921875 0 1373.621094 62 1406.519531 103 C 1428.121094 129.898438 1437.421875 140.101562 1450.121094 141.398438 C 1465.71875 142.800781 1506.21875 135.898438 1599.621094 71.601562 C 1627.121094 52.699219 1664.820312 59.601562 1683.71875 87.199219 C 1692.320312 99.800781 1695.921875 115.101562 1693.820312 130.199219 L 1617.019531 661.300781 C 1612.71875 690.898438 1587.21875 713 1557.21875 713 Z M 747.125 713 C 704.023438 711.601562 668.023438 745.5 666.625 788.601562 C 665.222656 831.601562 699.125 867.699219 742.222656 869.101562 C 743.824219 869.199219 745.523438 869.199219 747.023438 869.101562 L 1617.71875 869.101562 C 1660.820312 870.5 1696.820312 836.601562 1698.21875 793.5 C 1699.621094 750.398438 1665.71875 714.398438 1622.621094 713 C 1621.019531 712.898438 1619.320312 712.898438 1617.820312 713 Z M 1617.71875 990.101562 L 747.023438 990.101562 C 637.125 992.199219 546.222656 904.800781 544.023438 794.898438 C 541.925781 685 629.324219 594.101562 739.222656 591.898438 C 741.824219 591.800781 744.324219 591.800781 747.023438 591.898438 L 1617.71875 591.898438 C 1727.621094 589.800781 1818.519531 677.199219 1820.71875 787.101562 C 1822.921875 897 1735.421875 987.898438 1625.519531 990.101562 C 1622.921875 990.199219 1620.320312 990.199219 1617.71875 990.101562 Z M 1469.019531 1518.699219 L 895.722656 1518.699219 C 862.324219 1518.699219 835.222656 1491.601562 835.222656 1458.199219 C 835.222656 1424.800781 862.324219 1397.699219 895.722656 1397.699219 L 1469.019531 1397.699219 C 1502.421875 1397.699219 1529.519531 1424.800781 1529.519531 1458.199219 C 1529.519531 1491.601562 1502.421875 1518.699219 1469.019531 1518.699219 Z M 1447.121094 1254.398438 L 917.625 1254.398438 C 884.222656 1254.398438 857.125 1227.300781 857.125 1193.898438 C 857.125 1160.5 884.222656 1133.398438 917.625 1133.398438 L 1447.121094 1133.398438 C 1480.519531 1133.398438 1507.621094 1160.5 1507.621094 1193.898438 C 1507.71875 1227.300781 1480.621094 1254.398438 1447.121094 1254.398438 Z M 804.222656 3213.398438 C 806.722656 3213.398438 809.324219 3213.601562 811.824219 3213.898438 C 829.925781 3216.199219 846.023438 3226.601562 855.625 3242.101562 C 917.722656 3342 1042.820312 3404 1182.519531 3404 C 1322.230469 3404 1447.320312 3342 1509.21875 3242.101562 C 1526.71875 3213.699219 1564.019531 3204.699219 1592.519531 3222.300781 C 1596.121094 3224.5 1599.519531 3227.101562 1602.519531 3230 C 1824.21875 3442.398438 1979.320312 3343.5 1980.71875 3342.199219 C 1990.921875 3335.398438 2003.019531 3331.800781 2015.320312 3332.101562 C 2222.71875 3335.699219 2243.121094 3291.300781 2243.21875 3290.898438 C 2246.21875 3281.800781 2238.121094 3242.398438 2165.71875 3169.898438 C 2131.121094 3135.601562 2094.019531 3103.800781 2054.71875 3074.898438 C 2033.21875 3059.5 2024.121094 3031.898438 2032.421875 3006.800781 C 2181.621094 2551 1971.121094 2298.601562 1748.21875 2031.5 C 1631.121094 1891.199219 1510.019531 1746 1441.21875 1569.101562 C 1371.519531 1389.699219 1365.621094 1199.699219 1423.019531 990.300781 L 941.722656 990.300781 C 999.425781 1199.699219 993.324219 1389.800781 923.523438 1569.101562 C 854.722656 1746 733.625 1891.199219 616.523438 2031.5 C 393.722656 2298.601562 183.125 2550.898438 332.324219 3006.800781 C 340.523438 3031.898438 331.523438 3059.5 310.023438 3074.898438 C 270.425781 3104.101562 232.925781 3136.199219 198.023438 3170.898438 C 126.523438 3243.199219 118.625 3282.199219 121.523438 3291.199219 C 121.523438 3291.699219 142.023438 3336.101562 349.425781 3332.398438 C 361.726562 3331.898438 373.726562 3335.398438 383.726562 3342.300781 C 394.425781 3348.898438 547.523438 3436.101562 761.925781 3230.300781 C 773.425781 3219.398438 788.425781 3213.300781 804.222656 3213.398438 Z M 1182.421875 3525 C 1025.519531 3525 885.625 3465.398438 795.222656 3362.699219 C 571.125 3545.199219 391.925781 3481.699219 335.425781 3453.5 C 207.523438 3454.601562 43.523438 3440.5 6.722656 3329.101562 C -15.976562 3259.699219 18.625 3179.800781 113.125 3084.5 C 142.125 3055.601562 172.625 3028.398438 204.625 3003 C 141.625 2786.699219 147.023438 2591 221.125 2406 C 289.925781 2233.898438 408.722656 2091.5 523.722656 1953.800781 C 751.125 1681.5 965.824219 1423.800781 802.425781 949.199219 C 791.523438 917.601562 808.425781 883.199219 840.023438 872.300781 C 846.324219 870.101562 852.925781 869 859.625 869 L 1505.320312 869 C 1538.71875 869 1565.820312 896.199219 1565.71875 929.601562 C 1565.71875 936.300781 1564.621094 942.898438 1562.421875 949.199219 C 1399.019531 1423.800781 1613.820312 1681.199219 1841.121094 1953.800781 C 1956.019531 2091.5 2074.820312 2233.699219 2143.71875 2406 C 2217.820312 2591 2223.21875 2786.601562 2160.21875 3003 C 2192.21875 3028.398438 2222.820312 3055.601562 2251.71875 3084.5 C 2346.320312 3179.699219 2381.121094 3259.699219 2358.121094 3329.101562 C 2321.320312 3440.5 2157.121094 3454.601562 2029.421875 3453.5 C 1972.820312 3481.800781 1793.71875 3545.300781 1569.621094 3362.699219 C 1479.121094 3465.398438 1339.320312 3525 1182.421875 3525 Z M 1182.421875 3525 "/>
</clipPath>
<clipPath id="clip-2">
<path clip-rule="nonzero" d="M 2014.519531 3453.300781 C 2001.121094 3453.300781 1988.019531 3448.800781 1977.421875 3440.601562 C 1792.820312 3297.398438 1857.71875 3126.800781 1860.621094 3119.601562 L 1973.121094 3164.300781 L 1973.121094 3163.398438 C 1969.621094 3173.101562 1942.320312 3260.5 2051.21875 3344.898438 C 2077.71875 3365.300781 2082.519531 3403.398438 2062.121094 3429.800781 C 2050.621094 3444.601562 2032.921875 3453.300781 2014.121094 3453.300781 Z M 350.324219 3453.300781 C 316.925781 3453.300781 289.824219 3426.300781 289.722656 3392.898438 C 289.722656 3374.101562 298.425781 3356.398438 313.222656 3344.898438 C 422.125 3260.398438 394.824219 3173 391.324219 3163.398438 L 391.324219 3164.300781 L 503.925781 3119.601562 C 506.722656 3127.199219 572.023438 3297.398438 387.023438 3440.601562 C 376.625 3448.800781 363.625 3453.199219 350.324219 3453.300781 Z M 1182.421875 2109.300781 C 927.324219 2109.199219 720.425781 2316.101562 720.324219 2571.300781 C 720.222656 2826.398438 927.125 3033.300781 1182.320312 3033.398438 C 1437.519531 3033.5 1644.320312 2826.601562 1644.421875 2571.398438 C 1644.421875 2571.300781 1644.421875 2571.300781 1644.421875 2571.199219 C 1644.21875 2316.101562 1437.621094 2109.199219 1182.421875 2108.898438 Z M 1182.421875 3154.300781 C 860.425781 3154.398438 599.324219 2893.300781 599.324219 2571.300781 C 599.222656 2249.300781 860.324219 1988.199219 1182.320312 1988.199219 C 1504.320312 1988.101562 1765.421875 2249.199219 1765.421875 2571.199219 L 1765.421875 2571.300781 C 1765.121094 2893.101562 1504.320312 3154 1182.421875 3154.300781 Z M 1169.71875 2879.199219 C 1166.421875 2879.199219 1163.121094 2879.199219 1159.921875 2879.199219 C 1077.121094 2875 994.125 2815.5 995.324219 2691.800781 C 995.625 2658.398438 1023.019531 2631.5 1056.320312 2631.800781 C 1089.71875 2632.101562 1116.621094 2659.5 1116.320312 2692.898438 C 1115.820312 2749.199219 1144.421875 2757.101562 1166.019531 2758.300781 C 1201.921875 2760.101562 1241.621094 2737.601562 1244.121094 2714.699219 L 1244.121094 2712.300781 C 1250.820312 2661.5 1170.019531 2629.101562 1153.820312 2623.5 C 998.125 2566.898438 985.425781 2478.300781 1002.121094 2414 C 1033.121094 2295 1133.820312 2253.601562 1213.921875 2265.300781 C 1308.71875 2279.199219 1372.820312 2357.101562 1369.019531 2454.398438 C 1367.820312 2487.800781 1339.71875 2513.898438 1306.320312 2512.699219 C 1272.921875 2511.5 1246.820312 2483.398438 1248.019531 2450 C 1249.519531 2407.800781 1222.320312 2388.699219 1196.320312 2384.800781 C 1167.621094 2380.601562 1132.121094 2394 1119.019531 2444.300781 C 1115.820312 2456.300781 1110.019531 2478.699219 1194.621094 2509.5 C 1285.421875 2542.601562 1377.421875 2616.898438 1363.71875 2726.699219 C 1355.21875 2819.898438 1258.519531 2879.199219 1169.71875 2879.199219 Z M 1177.019531 2967.101562 C 1143.621094 2967.101562 1116.519531 2940 1116.519531 2906.601562 L 1116.519531 2818.601562 C 1116.621094 2785.199219 1143.71875 2758.101562 1177.121094 2758.199219 C 1210.519531 2758.300781 1237.519531 2785.300781 1237.519531 2818.601562 L 1237.519531 2906.699219 C 1237.519531 2940 1210.519531 2967.101562 1177.019531 2967.101562 Z M 1187.820312 2384.101562 C 1154.421875 2384.101562 1127.320312 2357 1127.320312 2323.601562 L 1127.320312 2235.5 C 1127.320312 2202.101562 1154.421875 2175 1187.820312 2175 C 1221.21875 2175 1248.320312 2202.101562 1248.320312 2235.5 L 1248.320312 2323.601562 C 1248.320312 2357 1221.21875 2384.101562 1187.820312 2384.101562 Z M 1557.21875 713 C 1554.21875 713 1551.320312 712.800781 1548.421875 712.398438 C 1515.320312 707.601562 1492.421875 676.898438 1497.21875 643.898438 L 1556.121094 236.898438 C 1510.71875 257.300781 1472.921875 265.199219 1438.421875 261.898438 C 1373.71875 255.601562 1338.121094 211.300781 1312.121094 178.699219 C 1284.320312 143.800781 1265.71875 121.101562 1216.121094 121.101562 C 1166.519531 121.101562 1148.019531 143.800781 1120.019531 178.898438 C 1094.019531 211.300781 1058.421875 255.601562 993.722656 262.101562 C 959.425781 265.398438 921.222656 257.601562 876.023438 237.101562 L 934.925781 644.101562 C 938.824219 677.300781 915.222656 707.398438 881.925781 711.300781 C 849.925781 715.101562 820.625 693.101562 815.125 661.398438 L 738.324219 130.101562 C 733.523438 97 756.523438 66.300781 789.523438 61.5 C 804.625 59.300781 819.925781 62.898438 832.523438 71.601562 C 926.023438 135.898438 966.324219 142.898438 982.023438 141.398438 C 994.824219 140.101562 1004.121094 129.898438 1025.621094 103 C 1058.519531 62 1108.320312 0 1216.121094 0 C 1323.921875 0 1373.621094 62 1406.519531 103 C 1428.121094 129.898438 1437.421875 140.101562 1450.121094 141.398438 C 1465.71875 142.800781 1506.21875 135.898438 1599.621094 71.601562 C 1627.121094 52.699219 1664.820312 59.601562 1683.71875 87.199219 C 1692.320312 99.800781 1695.921875 115.101562 1693.820312 130.199219 L 1617.019531 661.300781 C 1612.71875 690.898438 1587.21875 713 1557.21875 713 Z M 747.125 713 C 704.023438 711.601562 668.023438 745.5 666.625 788.601562 C 665.222656 831.601562 699.125 867.699219 742.222656 869.101562 C 743.824219 869.199219 745.523438 869.199219 747.023438 869.101562 L 1617.71875 869.101562 C 1660.820312 870.5 1696.820312 836.601562 1698.21875 793.5 C 1699.621094 750.398438 1665.71875 714.398438 1622.621094 713 C 1621.019531 712.898438 1619.320312 712.898438 1617.820312 713 Z M 1617.71875 990.101562 L 747.023438 990.101562 C 637.125 992.199219 546.222656 904.800781 544.023438 794.898438 C 541.925781 685 629.324219 594.101562 739.222656 591.898438 C 741.824219 591.800781 744.324219 591.800781 747.023438 591.898438 L 1617.71875 591.898438 C 1727.621094 589.800781 1818.519531 677.199219 1820.71875 787.101562 C 1822.921875 897 1735.421875 987.898438 1625.519531 990.101562 C 1622.921875 990.199219 1620.320312 990.199219 1617.71875 990.101562 Z M 1469.019531 1518.699219 L 895.722656 1518.699219 C 862.324219 1518.699219 835.222656 1491.601562 835.222656 1458.199219 C 835.222656 1424.800781 862.324219 1397.699219 895.722656 1397.699219 L 1469.019531 1397.699219 C 1502.421875 1397.699219 1529.519531 1424.800781 1529.519531 1458.199219 C 1529.519531 1491.601562 1502.421875 1518.699219 1469.019531 1518.699219 Z M 1447.121094 1254.398438 L 917.625 1254.398438 C 884.222656 1254.398438 857.125 1227.300781 857.125 1193.898438 C 857.125 1160.5 884.222656 1133.398438 917.625 1133.398438 L 1447.121094 1133.398438 C 1480.519531 1133.398438 1507.621094 1160.5 1507.621094 1193.898438 C 1507.71875 1227.300781 1480.621094 1254.398438 1447.121094 1254.398438 Z M 804.222656 3213.398438 C 806.722656 3213.398438 809.324219 3213.601562 811.824219 3213.898438 C 829.925781 3216.199219 846.023438 3226.601562 855.625 3242.101562 C 917.722656 3342 1042.820312 3404 1182.519531 3404 C 1322.230469 3404 1447.320312 3342 1509.21875 3242.101562 C 1526.71875 3213.699219 1564.019531 3204.699219 1592.519531 3222.300781 C 1596.121094 3224.5 1599.519531 3227.101562 1602.519531 3230 C 1824.21875 3442.398438 1979.320312 3343.5 1980.71875 3342.199219 C 1990.921875 3335.398438 2003.019531 3331.800781 2015.320312 3332.101562 C 2222.71875 3335.699219 2243.121094 3291.300781 2243.21875 3290.898438 C 2246.21875 3281.800781 2238.121094 3242.398438 2165.71875 3169.898438 C 2131.121094 3135.601562 2094.019531 3103.800781 2054.71875 3074.898438 C 2033.21875 3059.5 2024.121094 3031.898438 2032.421875 3006.800781 C 2181.621094 2551 1971.121094 2298.601562 1748.21875 2031.5 C 1631.121094 1891.199219 1510.019531 1746 1441.21875 1569.101562 C 1371.519531 1389.699219 1365.621094 1199.699219 1423.019531 990.300781 L 941.722656 990.300781 C 999.425781 1199.699219 993.324219 1389.800781 923.523438 1569.101562 C 854.722656 1746 733.625 1891.199219 616.523438 2031.5 C 393.722656 2298.601562 183.125 2550.898438 332.324219 3006.800781 C 340.523438 3031.898438 331.523438 3059.5 310.023438 3074.898438 C 270.425781 3104.101562 232.925781 3136.199219 198.023438 3170.898438 C 126.523438 3243.199219 118.625 3282.199219 121.523438 3291.199219 C 121.523438 3291.699219 142.023438 3336.101562 349.425781 3332.398438 C 361.726562 3331.898438 373.726562 3335.398438 383.726562 3342.300781 C 394.425781 3348.898438 547.523438 3436.101562 761.925781 3230.300781 C 773.425781 3219.398438 788.425781 3213.300781 804.222656 3213.398438 Z M 1182.421875 3525 C 1025.519531 3525 885.625 3465.398438 795.222656 3362.699219 C 571.125 3545.199219 391.925781 3481.699219 335.425781 3453.5 C 207.523438 3454.601562 43.523438 3440.5 6.722656 3329.101562 C -15.976562 3259.699219 18.625 3179.800781 113.125 3084.5 C 142.125 3055.601562 172.625 3028.398438 204.625 3003 C 141.625 2786.699219 147.023438 2591 221.125 2406 C 289.925781 2233.898438 408.722656 2091.5 523.722656 1953.800781 C 751.125 1681.5 965.824219 1423.800781 802.425781 949.199219 C 791.523438 917.601562 808.425781 883.199219 840.023438 872.300781 C 846.324219 870.101562 852.925781 869 859.625 869 L 1505.320312 869 C 1538.71875 869 1565.820312 896.199219 1565.71875 929.601562 C 1565.71875 936.300781 1564.621094 942.898438 1562.421875 949.199219 C 1399.019531 1423.800781 1613.820312 1681.199219 1841.121094 1953.800781 C 1956.019531 2091.5 2074.820312 2233.699219 2143.71875 2406 C 2217.820312 2591 2223.21875 2786.601562 2160.21875 3003 C 2192.21875 3028.398438 2222.820312 3055.601562 2251.71875 3084.5 C 2346.320312 3179.699219 2381.121094 3259.699219 2358.121094 3329.101562 C 2321.320312 3440.5 2157.121094 3454.601562 2029.421875 3453.5 C 1972.820312 3481.800781 1793.71875 3545.300781 1569.621094 3362.699219 C 1479.121094 3465.398438 1339.320312 3525 1182.421875 3525 "/>
</clipPath>
<linearGradient id="linear-pattern-0" gradientUnits="userSpaceOnUse" x1="-0.171156" y1="0" x2="1.037524" y2="0" gradientTransform="matrix(2436.53, 2436.53, -2436.53, 2436.53, -19.0475, 853.1)">
<stop offset="0" stop-color="rgb(34.365845%, 58.634949%, 84.017944%)" stop-opacity="1"/>
<stop offset="0.125" stop-color="rgb(34.365845%, 58.634949%, 84.017944%)" stop-opacity="1"/>
<stop offset="0.140625" stop-color="rgb(34.365845%, 58.634949%, 84.017944%)" stop-opacity="1"/>
<stop offset="0.144531" stop-color="rgb(34.292603%, 58.485413%, 83.934021%)" stop-opacity="1"/>
<stop offset="0.148438" stop-color="rgb(34.217834%, 58.335876%, 83.851624%)" stop-opacity="1"/>
<stop offset="0.152344" stop-color="rgb(34.092712%, 58.158875%, 83.753967%)" stop-opacity="1"/>
<stop offset="0.15625" stop-color="rgb(33.96759%, 57.981873%, 83.656311%)" stop-opacity="1"/>
<stop offset="0.160156" stop-color="rgb(33.668518%, 57.774353%, 83.552551%)" stop-opacity="1"/>
<stop offset="0.164062" stop-color="rgb(33.369446%, 57.566833%, 83.448792%)" stop-opacity="1"/>
<stop offset="0.167969" stop-color="rgb(33.181763%, 57.380676%, 83.349609%)" stop-opacity="1"/>
<stop offset="0.171875" stop-color="rgb(32.99408%, 57.194519%, 83.248901%)" stop-opacity="1"/>
<stop offset="0.175781" stop-color="rgb(32.911682%, 57.028198%, 83.154297%)" stop-opacity="1"/>
<stop offset="0.179688" stop-color="rgb(32.830811%, 56.861877%, 83.059692%)" stop-opacity="1"/>
<stop offset="0.183594" stop-color="rgb(32.748413%, 56.694031%, 82.965088%)" stop-opacity="1"/>
<stop offset="0.1875" stop-color="rgb(32.666016%, 56.52771%, 82.868958%)" stop-opacity="1"/>
<stop offset="0.191406" stop-color="rgb(32.565308%, 56.370544%, 82.780457%)" stop-opacity="1"/>
<stop offset="0.195312" stop-color="rgb(32.4646%, 56.211853%, 82.691956%)" stop-opacity="1"/>
<stop offset="0.199219" stop-color="rgb(32.263184%, 56.103516%, 82.63855%)" stop-opacity="1"/>
<stop offset="0.203125" stop-color="rgb(32.063293%, 55.993652%, 82.585144%)" stop-opacity="1"/>
<stop offset="0.207031" stop-color="rgb(31.922913%, 55.822754%, 82.49054%)" stop-opacity="1"/>
<stop offset="0.210938" stop-color="rgb(31.785583%, 55.654907%, 82.397461%)" stop-opacity="1"/>
<stop offset="0.214844" stop-color="rgb(31.716919%, 55.41687%, 82.25708%)" stop-opacity="1"/>
<stop offset="0.21875" stop-color="rgb(31.648254%, 55.178833%, 82.116699%)" stop-opacity="1"/>
<stop offset="0.226562" stop-color="rgb(31.559753%, 55.058289%, 82.049561%)" stop-opacity="1"/>
<stop offset="0.234375" stop-color="rgb(31.381226%, 54.830933%, 81.921387%)" stop-opacity="1"/>
<stop offset="0.238281" stop-color="rgb(31.222534%, 54.490662%, 81.723022%)" stop-opacity="1"/>
<stop offset="0.242188" stop-color="rgb(31.155396%, 54.25415%, 81.582642%)" stop-opacity="1"/>
<stop offset="0.246094" stop-color="rgb(31.077576%, 54.081726%, 81.481934%)" stop-opacity="1"/>
<stop offset="0.25" stop-color="rgb(30.999756%, 53.909302%, 81.381226%)" stop-opacity="1"/>
<stop offset="0.257812" stop-color="rgb(30.908203%, 53.820801%, 81.332397%)" stop-opacity="1"/>
<stop offset="0.261719" stop-color="rgb(30.662537%, 53.52478%, 81.164551%)" stop-opacity="1"/>
<stop offset="0.265625" stop-color="rgb(30.509949%, 53.315735%, 81.045532%)" stop-opacity="1"/>
<stop offset="0.269531" stop-color="rgb(30.345154%, 53.074646%, 80.906677%)" stop-opacity="1"/>
<stop offset="0.273438" stop-color="rgb(30.180359%, 52.832031%, 80.766296%)" stop-opacity="1"/>
<stop offset="0.277344" stop-color="rgb(30.102539%, 52.67334%, 80.673218%)" stop-opacity="1"/>
<stop offset="0.28125" stop-color="rgb(30.023193%, 52.514648%, 80.578613%)" stop-opacity="1"/>
<stop offset="0.285156" stop-color="rgb(29.989624%, 52.334595%, 80.470276%)" stop-opacity="1"/>
<stop offset="0.289062" stop-color="rgb(29.957581%, 52.153015%, 80.360413%)" stop-opacity="1"/>
<stop offset="0.292969" stop-color="rgb(29.997253%, 51.937866%, 80.224609%)" stop-opacity="1"/>
<stop offset="0.296875" stop-color="rgb(30.038452%, 51.721191%, 80.088806%)" stop-opacity="1"/>
<stop offset="0.300781" stop-color="rgb(29.994202%, 51.545715%, 79.983521%)" stop-opacity="1"/>
<stop offset="0.304688" stop-color="rgb(29.951477%, 51.371765%, 79.876709%)" stop-opacity="1"/>
<stop offset="0.308594" stop-color="rgb(29.878235%, 51.213074%, 79.78363%)" stop-opacity="1"/>
<stop offset="0.3125" stop-color="rgb(29.801941%, 51.054382%, 79.689026%)" stop-opacity="1"/>
<stop offset="0.316406" stop-color="rgb(29.84314%, 50.839233%, 79.553223%)" stop-opacity="1"/>
<stop offset="0.320312" stop-color="rgb(29.884338%, 50.624084%, 79.417419%)" stop-opacity="1"/>
<stop offset="0.324219" stop-color="rgb(29.920959%, 50.43335%, 79.298401%)" stop-opacity="1"/>
<stop offset="0.328125" stop-color="rgb(29.956055%, 50.242615%, 79.177856%)" stop-opacity="1"/>
<stop offset="0.332031" stop-color="rgb(29.983521%, 50.099182%, 79.08783%)" stop-opacity="1"/>
<stop offset="0.335938" stop-color="rgb(30.010986%, 49.95575%, 78.997803%)" stop-opacity="1"/>
<stop offset="0.339844" stop-color="rgb(30.116272%, 49.772644%, 78.88031%)" stop-opacity="1"/>
<stop offset="0.34375" stop-color="rgb(30.220032%, 49.589539%, 78.761292%)" stop-opacity="1"/>
<stop offset="0.347656" stop-color="rgb(30.36499%, 49.385071%, 78.630066%)" stop-opacity="1"/>
<stop offset="0.351562" stop-color="rgb(30.508423%, 49.182129%, 78.497314%)" stop-opacity="1"/>
<stop offset="0.355469" stop-color="rgb(30.651855%, 48.976135%, 78.364563%)" stop-opacity="1"/>
<stop offset="0.359375" stop-color="rgb(30.795288%, 48.771667%, 78.231812%)" stop-opacity="1"/>
<stop offset="0.363281" stop-color="rgb(30.940247%, 48.565674%, 78.100586%)" stop-opacity="1"/>
<stop offset="0.367188" stop-color="rgb(31.082153%, 48.35968%, 77.966309%)" stop-opacity="1"/>
<stop offset="0.371094" stop-color="rgb(31.227112%, 48.153687%, 77.835083%)" stop-opacity="1"/>
<stop offset="0.375" stop-color="rgb(31.369019%, 47.946167%, 77.702332%)" stop-opacity="1"/>
<stop offset="0.378906" stop-color="rgb(31.512451%, 47.740173%, 77.56958%)" stop-opacity="1"/>
<stop offset="0.382812" stop-color="rgb(31.654358%, 47.531128%, 77.435303%)" stop-opacity="1"/>
<stop offset="0.386719" stop-color="rgb(31.797791%, 47.323608%, 77.302551%)" stop-opacity="1"/>
<stop offset="0.390625" stop-color="rgb(31.939697%, 47.114563%, 77.1698%)" stop-opacity="1"/>
<stop offset="0.394531" stop-color="rgb(32.081604%, 46.905518%, 77.037048%)" stop-opacity="1"/>
<stop offset="0.398438" stop-color="rgb(32.221985%, 46.696472%, 76.904297%)" stop-opacity="1"/>
<stop offset="0.402344" stop-color="rgb(32.368469%, 46.46759%, 76.759338%)" stop-opacity="1"/>
<stop offset="0.40625" stop-color="rgb(32.511902%, 46.238708%, 76.61438%)" stop-opacity="1"/>
<stop offset="0.410156" stop-color="rgb(32.667542%, 45.954895%, 76.434326%)" stop-opacity="1"/>
<stop offset="0.414062" stop-color="rgb(32.820129%, 45.671082%, 76.255798%)" stop-opacity="1"/>
<stop offset="0.417969" stop-color="rgb(33.024597%, 45.433044%, 76.104736%)" stop-opacity="1"/>
<stop offset="0.421875" stop-color="rgb(33.227539%, 45.193481%, 75.953674%)" stop-opacity="1"/>
<stop offset="0.425781" stop-color="rgb(33.470154%, 44.989014%, 75.822449%)" stop-opacity="1"/>
<stop offset="0.429688" stop-color="rgb(33.711243%, 44.781494%, 75.689697%)" stop-opacity="1"/>
<stop offset="0.433594" stop-color="rgb(33.963013%, 44.509888%, 75.517273%)" stop-opacity="1"/>
<stop offset="0.4375" stop-color="rgb(34.214783%, 44.235229%, 75.344849%)" stop-opacity="1"/>
<stop offset="0.441406" stop-color="rgb(34.468079%, 43.951416%, 75.166321%)" stop-opacity="1"/>
<stop offset="0.445313" stop-color="rgb(34.719849%, 43.667603%, 74.989319%)" stop-opacity="1"/>
<stop offset="0.449219" stop-color="rgb(34.970093%, 43.382263%, 74.812317%)" stop-opacity="1"/>
<stop offset="0.453125" stop-color="rgb(35.221863%, 43.095398%, 74.633789%)" stop-opacity="1"/>
<stop offset="0.457031" stop-color="rgb(35.472107%, 42.807007%, 74.455261%)" stop-opacity="1"/>
<stop offset="0.460938" stop-color="rgb(35.719299%, 42.518616%, 74.276733%)" stop-opacity="1"/>
<stop offset="0.464844" stop-color="rgb(35.969543%, 42.228699%, 74.09668%)" stop-opacity="1"/>
<stop offset="0.46875" stop-color="rgb(36.218262%, 41.937256%, 73.918152%)" stop-opacity="1"/>
<stop offset="0.472656" stop-color="rgb(36.540222%, 41.712952%, 73.779297%)" stop-opacity="1"/>
<stop offset="0.476562" stop-color="rgb(36.863708%, 41.487122%, 73.640442%)" stop-opacity="1"/>
<stop offset="0.480469" stop-color="rgb(37.200928%, 41.259766%, 73.480225%)" stop-opacity="1"/>
<stop offset="0.484375" stop-color="rgb(37.536621%, 41.029358%, 73.318481%)" stop-opacity="1"/>
<stop offset="0.488281" stop-color="rgb(37.884521%, 40.739441%, 73.017883%)" stop-opacity="1"/>
<stop offset="0.492188" stop-color="rgb(38.230896%, 40.446472%, 72.715759%)" stop-opacity="1"/>
<stop offset="0.496094" stop-color="rgb(38.5849%, 40.116882%, 72.332764%)" stop-opacity="1"/>
<stop offset="0.5" stop-color="rgb(38.937378%, 39.785767%, 71.949768%)" stop-opacity="1"/>
<stop offset="0.503906" stop-color="rgb(39.297485%, 39.416504%, 71.482849%)" stop-opacity="1"/>
<stop offset="0.507812" stop-color="rgb(39.654541%, 39.044189%, 71.01593%)" stop-opacity="1"/>
<stop offset="0.511719" stop-color="rgb(40.000916%, 38.73291%, 70.635986%)" stop-opacity="1"/>
<stop offset="0.515625" stop-color="rgb(40.345764%, 38.418579%, 70.256042%)" stop-opacity="1"/>
<stop offset="0.519531" stop-color="rgb(40.689087%, 38.117981%, 69.90509%)" stop-opacity="1"/>
<stop offset="0.523438" stop-color="rgb(41.030884%, 37.815857%, 69.555664%)" stop-opacity="1"/>
<stop offset="0.527344" stop-color="rgb(41.371155%, 37.512207%, 69.258118%)" stop-opacity="1"/>
<stop offset="0.53125" stop-color="rgb(41.7099%, 37.205505%, 68.960571%)" stop-opacity="1"/>
<stop offset="0.535156" stop-color="rgb(42.086792%, 36.932373%, 68.656921%)" stop-opacity="1"/>
<stop offset="0.539062" stop-color="rgb(42.463684%, 36.659241%, 68.353271%)" stop-opacity="1"/>
<stop offset="0.542969" stop-color="rgb(42.887878%, 36.428833%, 68.041992%)" stop-opacity="1"/>
<stop offset="0.546875" stop-color="rgb(43.313599%, 36.196899%, 67.729187%)" stop-opacity="1"/>
<stop offset="0.550781" stop-color="rgb(43.743896%, 35.903931%, 67.385864%)" stop-opacity="1"/>
<stop offset="0.554688" stop-color="rgb(44.174194%, 35.609436%, 67.041016%)" stop-opacity="1"/>
<stop offset="0.558594" stop-color="rgb(44.606018%, 35.293579%, 66.687012%)" stop-opacity="1"/>
<stop offset="0.5625" stop-color="rgb(45.03479%, 34.977722%, 66.333008%)" stop-opacity="1"/>
<stop offset="0.566406" stop-color="rgb(45.463562%, 34.657288%, 65.979004%)" stop-opacity="1"/>
<stop offset="0.570312" stop-color="rgb(45.892334%, 34.336853%, 65.625%)" stop-opacity="1"/>
<stop offset="0.574219" stop-color="rgb(46.296692%, 34.033203%, 65.263367%)" stop-opacity="1"/>
<stop offset="0.578125" stop-color="rgb(46.697998%, 33.726501%, 64.900208%)" stop-opacity="1"/>
<stop offset="0.582031" stop-color="rgb(47.065735%, 33.447266%, 64.52179%)" stop-opacity="1"/>
<stop offset="0.585937" stop-color="rgb(47.431946%, 33.164978%, 64.141846%)" stop-opacity="1"/>
<stop offset="0.589844" stop-color="rgb(47.839355%, 32.853699%, 63.743591%)" stop-opacity="1"/>
<stop offset="0.59375" stop-color="rgb(48.242188%, 32.539368%, 63.343811%)" stop-opacity="1"/>
<stop offset="0.597656" stop-color="rgb(48.666382%, 32.215881%, 62.939453%)" stop-opacity="1"/>
<stop offset="0.601562" stop-color="rgb(49.090576%, 31.890869%, 62.535095%)" stop-opacity="1"/>
<stop offset="0.605469" stop-color="rgb(49.597168%, 31.639099%, 62.171936%)" stop-opacity="1"/>
<stop offset="0.609375" stop-color="rgb(50.100708%, 31.384277%, 61.807251%)" stop-opacity="1"/>
<stop offset="0.613281" stop-color="rgb(50.602722%, 31.129456%, 61.463928%)" stop-opacity="1"/>
<stop offset="0.617188" stop-color="rgb(51.104736%, 30.871582%, 61.120605%)" stop-opacity="1"/>
<stop offset="0.621094" stop-color="rgb(51.603699%, 30.610657%, 60.81543%)" stop-opacity="1"/>
<stop offset="0.625" stop-color="rgb(52.101135%, 30.345154%, 60.510254%)" stop-opacity="1"/>
<stop offset="0.628906" stop-color="rgb(52.563477%, 30.059814%, 60.160828%)" stop-opacity="1"/>
<stop offset="0.632812" stop-color="rgb(53.022766%, 29.771423%, 59.809875%)" stop-opacity="1"/>
<stop offset="0.636719" stop-color="rgb(53.462219%, 29.472351%, 59.440613%)" stop-opacity="1"/>
<stop offset="0.640625" stop-color="rgb(53.900146%, 29.171753%, 59.069824%)" stop-opacity="1"/>
<stop offset="0.644531" stop-color="rgb(54.432678%, 28.874207%, 58.587646%)" stop-opacity="1"/>
<stop offset="0.648438" stop-color="rgb(54.960632%, 28.573608%, 58.103943%)" stop-opacity="1"/>
<stop offset="0.652344" stop-color="rgb(55.476379%, 28.282166%, 57.678223%)" stop-opacity="1"/>
<stop offset="0.65625" stop-color="rgb(55.987549%, 27.989197%, 57.254028%)" stop-opacity="1"/>
<stop offset="0.660156" stop-color="rgb(56.474304%, 27.714539%, 56.95343%)" stop-opacity="1"/>
<stop offset="0.664062" stop-color="rgb(56.956482%, 27.438354%, 56.654358%)" stop-opacity="1"/>
<stop offset="0.667969" stop-color="rgb(57.443237%, 27.108765%, 56.29425%)" stop-opacity="1"/>
<stop offset="0.671875" stop-color="rgb(57.928467%, 26.777649%, 55.935669%)" stop-opacity="1"/>
<stop offset="0.675781" stop-color="rgb(58.416748%, 26.41449%, 55.543518%)" stop-opacity="1"/>
<stop offset="0.679688" stop-color="rgb(58.901978%, 26.049805%, 55.152893%)" stop-opacity="1"/>
<stop offset="0.683594" stop-color="rgb(59.315491%, 25.912476%, 54.759216%)" stop-opacity="1"/>
<stop offset="0.6875" stop-color="rgb(59.727478%, 25.773621%, 54.364014%)" stop-opacity="1"/>
<stop offset="0.691406" stop-color="rgb(60.180664%, 25.579834%, 53.971863%)" stop-opacity="1"/>
<stop offset="0.695312" stop-color="rgb(60.632324%, 25.382996%, 53.579712%)" stop-opacity="1"/>
<stop offset="0.699219" stop-color="rgb(61.201477%, 25.006104%, 53.190613%)" stop-opacity="1"/>
<stop offset="0.703125" stop-color="rgb(61.769104%, 24.62616%, 52.801514%)" stop-opacity="1"/>
<stop offset="0.707031" stop-color="rgb(62.277222%, 24.354553%, 52.459717%)" stop-opacity="1"/>
<stop offset="0.710938" stop-color="rgb(62.783813%, 24.081421%, 52.11792%)" stop-opacity="1"/>
<stop offset="0.714844" stop-color="rgb(63.250732%, 23.884583%, 51.806641%)" stop-opacity="1"/>
<stop offset="0.71875" stop-color="rgb(63.7146%, 23.686218%, 51.496887%)" stop-opacity="1"/>
<stop offset="0.722656" stop-color="rgb(64.205933%, 23.373413%, 51.097107%)" stop-opacity="1"/>
<stop offset="0.726563" stop-color="rgb(64.692688%, 23.059082%, 50.700378%)" stop-opacity="1"/>
<stop offset="0.730469" stop-color="rgb(65.174866%, 22.743225%, 50.297546%)" stop-opacity="1"/>
<stop offset="0.734375" stop-color="rgb(65.653992%, 22.427368%, 49.89624%)" stop-opacity="1"/>
<stop offset="0.738281" stop-color="rgb(66.116333%, 22.140503%, 49.502563%)" stop-opacity="1"/>
<stop offset="0.742188" stop-color="rgb(66.575623%, 21.852112%, 49.108887%)" stop-opacity="1"/>
<stop offset="0.746094" stop-color="rgb(67.036438%, 21.614075%, 48.735046%)" stop-opacity="1"/>
<stop offset="0.75" stop-color="rgb(67.494202%, 21.374512%, 48.361206%)" stop-opacity="1"/>
<stop offset="0.753906" stop-color="rgb(67.948914%, 21.177673%, 48.00415%)" stop-opacity="1"/>
<stop offset="0.757812" stop-color="rgb(68.405151%, 20.977783%, 47.647095%)" stop-opacity="1"/>
<stop offset="0.761719" stop-color="rgb(68.939209%, 20.776367%, 47.239685%)" stop-opacity="1"/>
<stop offset="0.765625" stop-color="rgb(69.471741%, 20.573425%, 46.832275%)" stop-opacity="1"/>
<stop offset="0.769531" stop-color="rgb(69.996643%, 20.368958%, 46.440125%)" stop-opacity="1"/>
<stop offset="0.773437" stop-color="rgb(70.521545%, 20.16449%, 46.047974%)" stop-opacity="1"/>
<stop offset="0.777344" stop-color="rgb(70.973206%, 19.955444%, 45.747375%)" stop-opacity="1"/>
<stop offset="0.78125" stop-color="rgb(71.421814%, 19.746399%, 45.446777%)" stop-opacity="1"/>
<stop offset="0.785156" stop-color="rgb(71.916199%, 19.491577%, 45.077515%)" stop-opacity="1"/>
<stop offset="0.789062" stop-color="rgb(72.409058%, 19.235229%, 44.706726%)" stop-opacity="1"/>
<stop offset="0.792969" stop-color="rgb(72.946167%, 18.934631%, 44.268799%)" stop-opacity="1"/>
<stop offset="0.796875" stop-color="rgb(73.480225%, 18.632507%, 43.832397%)" stop-opacity="1"/>
<stop offset="0.800781" stop-color="rgb(73.942566%, 18.417358%, 43.424988%)" stop-opacity="1"/>
<stop offset="0.804688" stop-color="rgb(74.401855%, 18.202209%, 43.019104%)" stop-opacity="1"/>
<stop offset="0.808594" stop-color="rgb(74.833679%, 18.008423%, 42.61322%)" stop-opacity="1"/>
<stop offset="0.8125" stop-color="rgb(75.263977%, 17.81311%, 42.207336%)" stop-opacity="1"/>
<stop offset="0.816406" stop-color="rgb(75.621033%, 17.634583%, 41.763306%)" stop-opacity="1"/>
<stop offset="0.820312" stop-color="rgb(75.976562%, 17.457581%, 41.320801%)" stop-opacity="1"/>
<stop offset="0.824219" stop-color="rgb(76.40686%, 17.276001%, 40.948486%)" stop-opacity="1"/>
<stop offset="0.828125" stop-color="rgb(76.835632%, 17.094421%, 40.574646%)" stop-opacity="1"/>
<stop offset="0.832031" stop-color="rgb(77.354431%, 16.905212%, 40.281677%)" stop-opacity="1"/>
<stop offset="0.835937" stop-color="rgb(77.871704%, 16.716003%, 39.987183%)" stop-opacity="1"/>
<stop offset="0.839844" stop-color="rgb(78.457642%, 16.447449%, 39.628601%)" stop-opacity="1"/>
<stop offset="0.84375" stop-color="rgb(79.042053%, 16.177368%, 39.27002%)" stop-opacity="1"/>
<stop offset="0.847656" stop-color="rgb(79.620361%, 15.905762%, 38.903809%)" stop-opacity="1"/>
<stop offset="0.851563" stop-color="rgb(80.195618%, 15.631104%, 38.537598%)" stop-opacity="1"/>
<stop offset="0.855469" stop-color="rgb(80.548096%, 15.531921%, 38.22937%)" stop-opacity="1"/>
<stop offset="0.859375" stop-color="rgb(80.899048%, 15.431213%, 37.921143%)" stop-opacity="1"/>
<stop offset="0.863281" stop-color="rgb(81.25%, 15.342712%, 37.548828%)" stop-opacity="1"/>
<stop offset="0.867188" stop-color="rgb(81.600952%, 15.255737%, 37.176514%)" stop-opacity="1"/>
<stop offset="0.871094" stop-color="rgb(81.95343%, 15.185547%, 36.714172%)" stop-opacity="1"/>
<stop offset="0.875" stop-color="rgb(82.305908%, 15.113831%, 36.251831%)" stop-opacity="1"/>
<stop offset="0.878906" stop-color="rgb(82.839966%, 14.878845%, 35.862732%)" stop-opacity="1"/>
<stop offset="0.882813" stop-color="rgb(83.375549%, 14.640808%, 35.472107%)" stop-opacity="1"/>
<stop offset="0.886719" stop-color="rgb(83.964539%, 14.349365%, 35.110474%)" stop-opacity="1"/>
<stop offset="0.890625" stop-color="rgb(84.550476%, 14.057922%, 34.74884%)" stop-opacity="1"/>
<stop offset="0.894531" stop-color="rgb(84.977722%, 13.885498%, 34.417725%)" stop-opacity="1"/>
<stop offset="0.898438" stop-color="rgb(85.404968%, 13.710022%, 34.088135%)" stop-opacity="1"/>
<stop offset="0.902344" stop-color="rgb(85.806274%, 13.613892%, 33.717346%)" stop-opacity="1"/>
<stop offset="0.90625" stop-color="rgb(86.204529%, 13.517761%, 33.345032%)" stop-opacity="1"/>
<stop offset="0.910156" stop-color="rgb(86.558533%, 13.551331%, 32.905579%)" stop-opacity="1"/>
<stop offset="0.914063" stop-color="rgb(86.912537%, 13.586426%, 32.463074%)" stop-opacity="1"/>
<stop offset="0.917969" stop-color="rgb(87.374878%, 13.389587%, 32.122803%)" stop-opacity="1"/>
<stop offset="0.921875" stop-color="rgb(87.834167%, 13.191223%, 31.782532%)" stop-opacity="1"/>
<stop offset="0.925781" stop-color="rgb(88.340759%, 12.896729%, 31.488037%)" stop-opacity="1"/>
<stop offset="0.929688" stop-color="rgb(88.844299%, 12.599182%, 31.193542%)" stop-opacity="1"/>
<stop offset="0.933594" stop-color="rgb(89.283752%, 12.600708%, 30.848694%)" stop-opacity="1"/>
<stop offset="0.9375" stop-color="rgb(89.720154%, 12.60376%, 30.502319%)" stop-opacity="1"/>
<stop offset="0.941406" stop-color="rgb(90.097046%, 12.580872%, 30.158997%)" stop-opacity="1"/>
<stop offset="0.945312" stop-color="rgb(90.472412%, 12.557983%, 29.814148%)" stop-opacity="1"/>
<stop offset="0.949219" stop-color="rgb(90.730286%, 12.486267%, 29.473877%)" stop-opacity="1"/>
<stop offset="0.953125" stop-color="rgb(90.985107%, 12.413025%, 29.133606%)" stop-opacity="1"/>
<stop offset="0.957031" stop-color="rgb(91.35437%, 12.324524%, 28.78418%)" stop-opacity="1"/>
<stop offset="0.960938" stop-color="rgb(91.722107%, 12.234497%, 28.436279%)" stop-opacity="1"/>
<stop offset="0.964844" stop-color="rgb(92.149353%, 12.138367%, 28.082275%)" stop-opacity="1"/>
<stop offset="0.96875" stop-color="rgb(92.575073%, 12.042236%, 27.729797%)" stop-opacity="1"/>
<stop offset="1" stop-color="rgb(92.58728%, 12.039185%, 27.720642%)" stop-opacity="1"/>
</linearGradient>
</defs>
<g clip-path="url(#clip-0)">
<g clip-path="url(#clip-1)">
<g clip-path="url(#clip-2)">
<path fill-rule="nonzero" fill="url(#linear-pattern-0)" d="M 1182.484375 -1182.484375 L -1762.5 1762.5 L 1182.484375 4707.484375 L 4127.46875 1762.5 Z M 1182.484375 -1182.484375 "/>
</g>
</g>
</g>
</svg>
